{
  "source": "C:\\Users\\Peter\\Desktop\\stuff\\MIUN\\quantitative_research\\video_compression\\videos\\BVI-HD\\TreeTrunk_1920x1080_50fps.mp4",
  "output": "C:\\Users\\Peter\\Desktop\\stuff\\MIUN\\quantitative_research\\video_compression\\compressed_videos\\BVI-HD\\vp9\\12\\TreeTrunk_1920x1080_50fps_vp9.webm",
  "codec": "vp9",
  "ok": "Input #0, mov,mp4,m4a,3gp,3g2,mj2, from 'C:\\Users\\Peter\\Desktop\\stuff\\MIUN\\quantitative_research\\video_compression\\videos\\BVI-HD\\TreeTrunk_1920x1080_50fps.mp4':\n  Metadata:\n    major_brand     : isom\n    minor_version   : 512\n    compatible_brands: isomiso2avc1mp41\n    encoder         : Lavf54.28.101\n  Duration: 00:00:05.00, start: 0.000000, bitrate: 622415 kb/s\n  Stream #0:0[0x1](und): Video: h264 (High 4:4:4 Predictive) (avc1 / 0x31637661), yuv420p(progressive), 1920x1080, 622410 kb/s, 50 fps, 50 tbr, 50 tbn (default)\n    Metadata:\n      handler_name    : VideoHandler\n      vendor_id       : [0][0][0][0]\n[out#0/webm @ 000001df04ac9540] Codec AVOption b:a (set bitrate (in bits/s)) has not been used for any stream. The most likely reason is either wrong type (e.g. a video option with no video streams) or that it is a private option of some decoder which was not actually used for any stream.\nStream mapping:\n  Stream #0:0 -> #0:0 (h264 (native) -> vp9 (libvpx-vp9))\nPress [q] to stop, [?] for help\n[libvpx-vp9 @ 000001df04b568c0] v1.15.2-100-g40561f514\nOutput #0, webm, to 'C:\\Users\\Peter\\Desktop\\stuff\\MIUN\\quantitative_research\\video_compression\\compressed_videos\\BVI-HD\\vp9\\12\\TreeTrunk_1920x1080_50fps_vp9.webm':\n  Metadata:\n    major_brand     : isom\n    minor_version   : 512\n    compatible_brands: isomiso2avc1mp41\n    encoder         : Lavf62.3.100\n  Stream #0:0(und): Video: vp9, yuv420p(tv, progressive), 1920x1080, q=2-31, 12000 kb/s, 50 fps, 1k tbn (default)\n    Metadata:\n      encoder         : Lavc62.11.100 libvpx-vp9\n      handler_name    : VideoHandler\n      vendor_id       : [0][0][0][0]\n    Side data:\n      cpb: bitrate max/min/avg: 0/0/0 buffer size: 12000000 vbv_delay: N/A\nframe=    0 fps=0.0 q=0.0 size=       0KiB time=N/A bitrate=N/A speed=N/A elapsed=0:00:00.51    \nframe=    0 fps=0.0 q=0.0 size=       0KiB time=N/A bitrate=N/A speed=N/A elapsed=0:00:01.07    \nframe=    3 fps=1.9 q=45.0 size=       1KiB time=00:00:00.06 bitrate=  84.5kbits/s speed=0.0371x elapsed=0:00:01.61    \nframe=    6 fps=2.8 q=28.0 size=       1KiB time=00:00:00.12 bitrate=  42.3kbits/s speed=0.0559x elapsed=0:00:02.14    \nframe=    9 fps=3.4 q=34.0 size=       1KiB time=00:00:00.18 bitrate=  28.2kbits/s speed=0.067x elapsed=0:00:02.68    \nframe=   12 fps=3.7 q=20.0 size=       1KiB time=00:00:00.24 bitrate=  21.1kbits/s speed=0.0747x elapsed=0:00:03.21    \nframe=   14 fps=3.7 q=32.0 size=       1KiB time=00:00:00.28 bitrate=  18.1kbits/s speed=0.0746x elapsed=0:00:03.75    \nframe=   18 fps=4.2 q=34.0 size=       1KiB time=00:00:00.36 bitrate=  14.1kbits/s speed=0.0841x elapsed=0:00:04.27    \nframe=   20 fps=4.2 q=37.0 size=       1KiB time=00:00:00.40 bitrate=  12.7kbits/s speed=0.083x elapsed=0:00:04.81    \nframe=   22 fps=4.1 q=38.0 size=       1KiB time=00:00:00.44 bitrate=  11.5kbits/s speed=0.0823x elapsed=0:00:05.34    \nframe=   25 fps=4.3 q=35.0 size=       1KiB time=00:00:00.50 bitrate=  10.1kbits/s speed=0.0852x elapsed=0:00:05.86    \nframe=   27 fps=4.2 q=38.0 size=       1KiB time=00:00:00.54 bitrate=   9.4kbits/s speed=0.0842x elapsed=0:00:06.41    \nframe=   31 fps=4.5 q=38.0 size=       1KiB time=00:00:00.62 bitrate=   8.2kbits/s speed=0.0894x elapsed=0:00:06.93    \nframe=   33 fps=4.4 q=37.0 size=       1KiB time=00:00:00.66 bitrate=   7.7kbits/s speed=0.0884x elapsed=0:00:07.46    \nframe=   35 fps=4.4 q=27.0 size=       1KiB time=00:00:00.70 bitrate=   7.2kbits/s speed=0.0874x elapsed=0:00:08.00    \nframe=   38 fps=4.4 q=37.0 size=       1KiB time=00:00:00.76 bitrate=   6.7kbits/s speed=0.0888x elapsed=0:00:08.55    \nframe=   40 fps=4.4 q=37.0 size=       1KiB time=00:00:00.80 bitrate=   6.3kbits/s speed=0.0878x elapsed=0:00:09.10    \nframe=   44 fps=4.6 q=36.0 size=       1KiB time=00:00:00.88 bitrate=   5.8kbits/s speed=0.0912x elapsed=0:00:09.65    \nframe=   45 fps=4.4 q=22.0 size=       1KiB time=00:00:00.90 bitrate=   5.6kbits/s speed=0.0884x elapsed=0:00:10.18    \nframe=   48 fps=4.5 q=26.0 size=       1KiB time=00:00:00.96 bitrate=   5.3kbits/s speed=0.0896x elapsed=0:00:10.72    \nframe=   51 fps=4.5 q=34.0 size=       1KiB time=00:00:01.02 bitrate=   5.0kbits/s speed=0.0908x elapsed=0:00:11.23    \nframe=   53 fps=4.5 q=39.0 size=       1KiB time=00:00:01.06 bitrate=   4.8kbits/s speed=0.0902x elapsed=0:00:11.75    \nframe=   56 fps=4.6 q=22.0 size=       1KiB time=00:00:01.12 bitrate=   4.5kbits/s speed=0.0912x elapsed=0:00:12.28    \nframe=   58 fps=4.5 q=38.0 size=       1KiB time=00:00:01.16 bitrate=   4.4kbits/s speed=0.0903x elapsed=0:00:12.83    \nframe=   61 fps=4.6 q=26.0 size=       1KiB time=00:00:01.22 bitrate=   4.2kbits/s speed=0.0912x elapsed=0:00:13.37    \nframe=   64 fps=4.6 q=35.0 size=       1KiB time=00:00:01.28 bitrate=   4.0kbits/s speed=0.092x elapsed=0:00:13.91    \nframe=   66 fps=4.6 q=37.0 size=       1KiB time=00:00:01.32 bitrate=   3.8kbits/s speed=0.0913x elapsed=0:00:14.45    \nframe=   69 fps=4.6 q=37.0 size=       1KiB time=00:00:01.38 bitrate=   3.7kbits/s speed=0.0921x elapsed=0:00:14.97    \nframe=   72 fps=4.6 q=26.0 size=       1KiB time=00:00:01.44 bitrate=   3.5kbits/s speed=0.0928x elapsed=0:00:15.51    \nframe=   75 fps=4.7 q=39.0 size=       1KiB time=00:00:01.50 bitrate=   3.4kbits/s speed=0.0936x elapsed=0:00:16.03    \nframe=   77 fps=4.6 q=36.0 size=       1KiB time=00:00:01.54 bitrate=   3.3kbits/s speed=0.0929x elapsed=0:00:16.58    \nframe=   80 fps=4.7 q=38.0 size=       1KiB time=00:00:01.60 bitrate=   3.2kbits/s speed=0.0935x elapsed=0:00:17.11    \nframe=   82 fps=4.6 q=37.0 size=       1KiB time=00:00:01.64 bitrate=   3.1kbits/s speed=0.093x elapsed=0:00:17.64    \nframe=   86 fps=4.7 q=37.0 size=       1KiB time=00:00:01.72 bitrate=   2.9kbits/s speed=0.0947x elapsed=0:00:18.16    \nframe=   88 fps=4.7 q=35.0 size=       1KiB time=00:00:01.76 bitrate=   2.9kbits/s speed=0.0942x elapsed=0:00:18.68    \nframe=   91 fps=4.7 q=39.0 size=       1KiB time=00:00:01.82 bitrate=   2.8kbits/s speed=0.0946x elapsed=0:00:19.24    \nframe=   93 fps=4.7 q=35.0 size=       1KiB time=00:00:01.86 bitrate=   2.7kbits/s speed=0.094x elapsed=0:00:19.79    \nframe=   97 fps=4.8 q=36.0 size=       1KiB time=00:00:01.94 bitrate=   2.6kbits/s speed=0.0955x elapsed=0:00:20.31    \nframe=   99 fps=4.7 q=40.0 size=       1KiB time=00:00:01.98 bitrate=   2.6kbits/s speed=0.0949x elapsed=0:00:20.86    \nframe=  102 fps=4.8 q=30.0 size=       1KiB time=00:00:02.04 bitrate=   2.5kbits/s speed=0.0954x elapsed=0:00:21.38    \nframe=  104 fps=4.7 q=43.0 size=       1KiB time=00:00:02.08 bitrate=   2.4kbits/s speed=0.0948x elapsed=0:00:21.93    \nframe=  106 fps=4.7 q=35.0 size=       1KiB time=00:00:02.12 bitrate=   2.4kbits/s speed=0.0943x elapsed=0:00:22.47    \nframe=  110 fps=4.8 q=39.0 size=       1KiB time=00:00:02.20 bitrate=   2.3kbits/s speed=0.0957x elapsed=0:00:22.99    \nframe=  111 fps=4.7 q=25.0 size=       1KiB time=00:00:02.22 bitrate=   2.3kbits/s speed=0.0943x elapsed=0:00:23.54    \nframe=  114 fps=4.7 q=27.0 size=       1KiB time=00:00:02.28 bitrate=   2.2kbits/s speed=0.0948x elapsed=0:00:24.06    \nframe=  117 fps=4.8 q=38.0 size=       1KiB time=00:00:02.34 bitrate=   2.2kbits/s speed=0.0951x elapsed=0:00:24.61    \nframe=  119 fps=4.7 q=35.0 size=    5120KiB time=00:00:02.38 bitrate=17623.1kbits/s speed=0.0946x elapsed=0:00:25.15    \nframe=  122 fps=4.7 q=39.0 size=    5120KiB time=00:00:02.44 bitrate=17189.8kbits/s speed=0.095x elapsed=0:00:25.68    \nframe=  124 fps=4.7 q=36.0 size=    5120KiB time=00:00:02.48 bitrate=16912.5kbits/s speed=0.0945x elapsed=0:00:26.24    \nframe=  127 fps=4.7 q=28.0 size=    5120KiB time=00:00:02.54 bitrate=16513.0kbits/s speed=0.0949x elapsed=0:00:26.76    \nframe=  129 fps=4.7 q=23.0 size=    5120KiB time=00:00:02.58 bitrate=16257.0kbits/s speed=0.0946x elapsed=0:00:27.28    \nframe=  132 fps=4.7 q=27.0 size=    5376KiB time=00:00:02.64 bitrate=16681.9kbits/s speed=0.0949x elapsed=0:00:27.82    \nframe=  135 fps=4.8 q=36.0 size=    5376KiB time=00:00:02.70 bitrate=16311.2kbits/s speed=0.0952x elapsed=0:00:28.35    \nframe=  139 fps=4.8 q=36.0 size=    5376KiB time=00:00:02.78 bitrate=15841.8kbits/s speed=0.0962x elapsed=0:00:28.88    \nframe=  140 fps=4.8 q=22.0 size=    5376KiB time=00:00:02.80 bitrate=15728.6kbits/s speed=0.0952x elapsed=0:00:29.42    \nframe=  142 fps=4.7 q=34.0 size=    5376KiB time=00:00:02.84 bitrate=15507.1kbits/s speed=0.0948x elapsed=0:00:29.94    \nframe=  145 fps=4.8 q=27.0 size=    5376KiB time=00:00:02.90 bitrate=15186.3kbits/s speed=0.0952x elapsed=0:00:30.45    \nframe=  148 fps=4.8 q=39.0 size=    5376KiB time=00:00:02.96 bitrate=14878.4kbits/s speed=0.0956x elapsed=0:00:30.97    \nframe=  150 fps=4.8 q=35.0 size=    5376KiB time=00:00:03.00 bitrate=14680.1kbits/s speed=0.0952x elapsed=0:00:31.51    \nframe=  153 fps=4.8 q=37.0 size=    5376KiB time=00:00:03.06 bitrate=14392.2kbits/s speed=0.0955x elapsed=0:00:32.03    \nframe=  155 fps=4.8 q=36.0 size=    5376KiB time=00:00:03.10 bitrate=14206.5kbits/s speed=0.0952x elapsed=0:00:32.56    \nframe=  159 fps=4.8 q=33.0 size=    5376KiB time=00:00:03.16 bitrate=13936.8kbits/s speed=0.0955x elapsed=0:00:33.07    \nframe=  161 fps=4.8 q=40.0 size=    5376KiB time=00:00:03.22 bitrate=13677.1kbits/s speed=0.0957x elapsed=0:00:33.63    \nframe=  163 fps=4.8 q=27.0 size=    5376KiB time=00:00:03.26 bitrate=13509.3kbits/s speed=0.0954x elapsed=0:00:34.18    \nframe=  166 fps=4.8 q=42.0 size=    5376KiB time=00:00:03.32 bitrate=13265.1kbits/s speed=0.0957x elapsed=0:00:34.70    \nframe=  168 fps=4.8 q=31.0 size=    5376KiB time=00:00:03.36 bitrate=13107.2kbits/s speed=0.0953x elapsed=0:00:35.25    \nframe=  170 fps=4.8 q=41.0 size=    5376KiB time=00:00:03.40 bitrate=12953.0kbits/s speed=0.095x elapsed=0:00:35.77    \nframe=  173 fps=4.8 q=23.0 size=    5376KiB time=00:00:03.46 bitrate=12728.4kbits/s speed=0.0953x elapsed=0:00:36.30    \nframe=  175 fps=4.8 q=38.0 size=    5376KiB time=00:00:03.50 bitrate=12582.9kbits/s speed=0.095x elapsed=0:00:36.83    \nframe=  179 fps=4.8 q=37.0 size=    5376KiB time=00:00:03.58 bitrate=12301.7kbits/s speed=0.0958x elapsed=0:00:37.35    \nframe=  181 fps=4.8 q=37.0 size=    5376KiB time=00:00:03.62 bitrate=12165.8kbits/s speed=0.0955x elapsed=0:00:37.90    \nframe=  183 fps=4.8 q=36.0 size=    5376KiB time=00:00:03.66 bitrate=12032.8kbits/s speed=0.0952x elapsed=0:00:38.45    \nframe=  185 fps=4.7 q=26.0 size=    5376KiB time=00:00:03.70 bitrate=11902.8kbits/s speed=0.0949x elapsed=0:00:38.97    \nframe=  188 fps=4.8 q=37.0 size=    5376KiB time=00:00:03.76 bitrate=11712.8kbits/s speed=0.0952x elapsed=0:00:39.51    \nframe=  190 fps=4.7 q=36.0 size=    5376KiB time=00:00:03.80 bitrate=11589.5kbits/s speed=0.0948x elapsed=0:00:40.08    \nframe=  192 fps=4.7 q=38.0 size=    5376KiB time=00:00:03.84 bitrate=11468.8kbits/s speed=0.0946x elapsed=0:00:40.61    \nframe=  195 fps=4.7 q=23.0 size=    5376KiB time=00:00:03.90 bitrate=11292.4kbits/s speed=0.0948x elapsed=0:00:41.14    \nframe=  197 fps=4.7 q=37.0 size=    5376KiB time=00:00:03.94 bitrate=11177.7kbits/s speed=0.0945x elapsed=0:00:41.68    \nframe=  201 fps=4.8 q=38.0 size=    5376KiB time=00:00:04.02 bitrate=10955.3kbits/s speed=0.0952x elapsed=0:00:42.22    \nframe=  203 fps=4.7 q=43.0 size=    5376KiB time=00:00:04.06 bitrate=10847.3kbits/s speed=0.095x elapsed=0:00:42.75    \nframe=  206 fps=4.8 q=23.0 size=    5376KiB time=00:00:04.12 bitrate=10689.4kbits/s speed=0.0952x elapsed=0:00:43.28    \nframe=  208 fps=4.7 q=28.0 size=    5376KiB time=00:00:04.16 bitrate=10586.6kbits/s speed=0.095x elapsed=0:00:43.79    \nframe=  211 fps=4.8 q=44.0 size=    5376KiB time=00:00:04.22 bitrate=10436.1kbits/s speed=0.0952x elapsed=0:00:44.34    \nframe=  213 fps=4.7 q=32.0 size=    5376KiB time=00:00:04.26 bitrate=10338.1kbits/s speed=0.0949x elapsed=0:00:44.87    \nframe=  216 fps=4.8 q=27.0 size=    5376KiB time=00:00:04.32 bitrate=10194.5kbits/s speed=0.0951x elapsed=0:00:45.42    \nframe=  219 fps=4.8 q=26.0 size=    5376KiB time=00:00:04.38 bitrate=10054.8kbits/s speed=0.0953x elapsed=0:00:45.97    \nframe=  222 fps=4.8 q=42.0 size=    5376KiB time=00:00:04.44 bitrate=9919.0kbits/s speed=0.0955x elapsed=0:00:46.48    \nframe=  224 fps=4.8 q=33.0 size=    5376KiB time=00:00:04.48 bitrate=9830.4kbits/s speed=0.0952x elapsed=0:00:47.03    \nframe=  226 fps=4.8 q=39.0 size=    5376KiB time=00:00:04.52 bitrate=9743.4kbits/s speed=0.0951x elapsed=0:00:47.55    \nframe=  226 fps=4.7 q=39.0 size=    5376KiB time=00:00:04.52 bitrate=9743.4kbits/s speed=0.094x elapsed=0:00:48.08    \nframe=  226 fps=4.6 q=39.0 size=    5376KiB time=00:00:04.52 bitrate=9743.4kbits/s speed=0.093x elapsed=0:00:48.60    \nframe=  226 fps=4.6 q=39.0 size=    5376KiB time=00:00:04.52 bitrate=9743.4kbits/s speed=0.092x elapsed=0:00:49.14    \nframe=  226 fps=4.5 q=39.0 size=    5376KiB time=00:00:04.52 bitrate=9743.4kbits/s speed=0.091x elapsed=0:00:49.68    \nframe=  226 fps=4.5 q=39.0 size=    5376KiB time=00:00:04.52 bitrate=9743.4kbits/s speed=0.09x elapsed=0:00:50.21    \nframe=  226 fps=4.5 q=39.0 size=    5376KiB time=00:00:04.52 bitrate=9743.4kbits/s speed=0.0891x elapsed=0:00:50.74    \nframe=  226 fps=4.4 q=39.0 size=    5376KiB time=00:00:04.52 bitrate=9743.4kbits/s speed=0.0881x elapsed=0:00:51.27    \nframe=  226 fps=4.4 q=39.0 size=    5376KiB time=00:00:04.52 bitrate=9743.4kbits/s speed=0.0873x elapsed=0:00:51.79    \nframe=  226 fps=4.3 q=39.0 size=    5376KiB time=00:00:04.52 bitrate=9743.4kbits/s speed=0.0864x elapsed=0:00:52.34    \n[out#0/webm @ 000001df04ac9540] video:11538KiB audio:0KiB subtitle:0KiB other streams:0KiB global headers:0KiB muxing overhead: 0.022074%\nframe=  250 fps=4.8 q=26.0 Lsize=   11540KiB time=00:00:05.00 bitrate=18907.5kbits/s speed=0.0953x elapsed=0:00:52.47    \n",
  "seconds": 52.858564615249634,
  "probe_out": {}
}